<svg width="20" height="20" viewBox="0 0 20 20" fill="none" xmlns="http://www.w3.org/2000/svg">
    <path fill-rule="evenodd" clip-rule="evenodd" d="M14.621 2.039c1.634.18 2.927 1.483 3.476 3.053.444 1.271.47 2.71.117 4.012a8.42 8.42 0 0 1-.403 1.15c-.987 2.902-3.512 4.797-6 6.265-.299.197-3.826 2.11-3.932 1.268 0-.303.122-.558.24-.807.128-.268.253-.529.216-.834a2.176 2.176 0 0 0-.361-1.517 3.48 3.48 0 0 0-.517-.598c-.542-.423-1.145-.784-1.746-1.142a61.232 61.232 0 0 1-.52-.314 16.25 16.25 0 0 1-.751-.482C2.032 10.707 1.587 7.68 2.324 5.22c.084-.25.183-.497.298-.734.114-.237.247-.464.4-.678.521-.727 1.22-1.317 2.054-1.601.456-.155.937-.203 1.413-.207.55-.003 1.115.054 1.635.252.863.33 1.516.962 2.108 1.67.48-.581 1.015-1.145 1.682-1.482.85-.428 1.78-.49 2.707-.401zm2.04 3.272c.086.248.136.508.148.772.017.213.01.426-.022.636-.026.343-.183.734-.494.811-.157-.781-.467-1.563-1.132-2.048a3.384 3.384 0 0 0-.643-.375c-.916-.409-2.048-.47-3.061-.313-.157.079-.468-.077-.39-.312.233-.547.78-.78 1.325-.938 1.405-.351 3.116 0 3.938 1.135.14.192.252.406.33.632z" fill="#EC6673"/>
</svg>
